<?xml version="1.0" encoding="UTF-8" standalone="no"?>
<!-- Created with Inkscape (http://www.inkscape.org/) -->

<svg
   width="55.67276mm"
   height="62.436836mm"
   viewBox="0 0 55.67276 62.436836"
   version="1.1"
   id="svg5"
   xml:space="preserve"
   xmlns="http://www.w3.org/2000/svg"
   xmlns:svg="http://www.w3.org/2000/svg"><defs
     id="defs2" /><g
     id="layer1-48"
     transform="translate(-756.57484,-512.65755)"
     style="fill:#df4444;fill-opacity:1"><path
       d="m 785.86564,572.07966 c 3.44295,-3.22164 2.51328,-4.48692 5.42857,-8.00604 0.51168,-0.61292 1.0019,-1.13202 1.08937,-1.15354 0.0875,-0.0215 0.59081,0.55968 1.11856,1.29154 1.34424,1.9192 2.73411,2.49578 2.83628,1.55018 -0.69756,-4.18856 0.87977,-9.48516 2.83919,-12.8134 l 1.04953,-1.25532 3.58209,-1.68911 c 2.42863,-1.15141 5.89302,-2.59775 7.49603,-4.53133 0.5923,-0.55589 0.57414,-1.14273 0.66974,-1.91222 l 0.1558,-1.2542 -0.68806,-0.87611 c -0.37843,-0.48186 -0.75007,-1.04478 -0.82587,-1.25092 -1.89122,-3.39817 -6.81924,-5.34819 -8.95605,-7.59243 -1.71099,-1.59775 -1.18218,-0.98571 -1.71305,-3.14361 l -0.38147,-1.55058 c -0.74883,-0.75071 -0.95058,-1.10933 -1.96838,-0.85894 -0.95877,0.0834 -1.15742,0.7034 -1.65577,1.45729 l -0.82883,1.25385 c -1.81078,2.05047 -1.94912,1.74515 -3.94751,4.8822 -2.2206,3.31926 -1.66996,4.4761 -1.47422,8.11162 l -2.12455,0.69772 c -1.16849,0.38376 -2.9924,1.15729 -4.05309,1.71899 -5.49213,3.22497 -11.15373,8.08902 -13.8352,13.13088 0.47671,-2.42998 3.4479,-6.21814 4.74053,-8.31208 4.11645,-6.10335 7.01004,-14.03986 6.93837,-20.74494 0.51622,-15.83102 -6.48679,-19.35311 -15.06168,-14.62756 3.08776,1.92033 5.93406,7.38301 -3.34419,18.36753 -9.28385,8.98951 -6.87175,19.04032 -2.54777,25.7646 0.87978,1.4017 3.12165,3.28713 6.94722,4.94551 6.41413,2.78051 11.46877,11.04533 14.0236,11.31024 2.95403,-0.0603 6.23626,0.6379 6.09798,-0.91941 -0.23282,-1.10377 -1.02353,-1.437 -1.60717,-1.99041 z"
       style="fill:#df4444;fill-opacity:1;stroke:none;stroke-width:1;stroke-opacity:1"
       id="path1032-8-74" /></g><path
     style="fill:#050505;fill-opacity:1;stroke-width:0.999999"
     d="m 45.062123,28.672098 c 2.11667,-0.389639 0.38887,-0.158979 2.34635,-0.276673 1.35426,-0.0705 3.25048,-0.03083 3.2924,0.06889 0.0298,0.07071 0.0586,0.03353 0.0642,-0.08268 0.61522,-0.549416 2.9581,1.46e-4 1.66623,-0.524953 -0.0117,-0.364225 0.62152,-0.191028 0.62428,-0.192524 -0.0715,0.138058 0.0744,-0.01342 0.33654,-0.06353 0.52479,0.05782 0.32967,-0.09203 0.99049,0.135876 0.24718,-0.02701 0.90013,-0.03085 0.20277,-0.322886 -0.29449,-0.164812 -0.34939,-0.182556 -0.0959,-0.229934 0.50837,-0.09295 0.2915,-0.128724 -0.0766,-0.159991 -0.0853,-0.02942 -0.14632,0.217034 -0.0187,-0.467021 0.0809,-0.946993 1.29948,-0.615401 0.17438,-0.985601 -0.10087,-0.03285 -0.19289,-0.05788 -0.19289,-0.128588 0,-0.07071 0.11573,-0.128589 0.25718,-0.128589 0.14145,0 0.25718,-0.04396 0.25718,-0.09766 0,-0.217561 -0.52991,-0.402655 -1.39759,-0.488152 -1.45577,-0.143445 -1.06414,-0.299364 0.57373,-0.22841 0.81989,0.03551 0.5642,0.03149 0.72532,-0.009 0.40993,-0.102883 1.0615,-0.969008 0.83451,-1.109297 -0.0929,-0.05738 -0.18988,-0.21025 -0.21556,-0.339677 -0.12161,-0.612798 -0.12135,-1.014317 7.2e-4,-1.091605 0.0856,-0.05416 0.0568,-0.16186 -0.0799,-0.298503 -0.25194,-0.251943 -0.27178,-0.471649 -0.0616,-0.681856 0.19159,-0.191589 0.079,-0.309192 -0.30455,-0.318194 -0.37217,-0.0087 -3.14634,0.149051 -4.46468,0.227397 -1.29516,0.07696 -8.29519,0.255813 -10.01227,0.255813 -1.83143,0 -3.38549,-0.160146 -5.11117,-0.526702 -0.51264,-0.108891 -1.04973,-0.160635 -1.19357,-0.114985 -0.28662,0.09097 -0.89617,0.653118 -0.89617,0.826475 0,0.16616 -0.57889,0.276392 -1.85892,0.353988 -0.63958,0.03878 -1.20298,0.13399 -1.25198,0.211599 -0.0491,0.07762 -0.33832,0.129367 -0.64293,0.115006 -0.45485,-0.02143 -0.30691,0.04697 -0.0692,0.148029 0.18865,0.0198 0.36887,0.01899 0.47974,0.04809 0,0.06845 0.15913,0.09569 0.35362,0.06044 0.2029,-0.03674 0.30794,-0.01545 0.24646,0.05001 -0.12268,0.130534 -0.16842,0.139632 -0.82511,0.164207 -0.36208,0.01356 -0.43416,0.04906 -0.28932,0.142688 0.15598,0.100798 0.13751,0.12503 -0.0964,0.126619 -0.15913,7.29e-4 -0.27485,0.06678 -0.25718,0.145939 0.0177,0.07918 -0.16198,0.211716 -0.39926,0.294516 -0.38253,0.133495 -0.40804,0.169952 -0.22503,0.321831 0.26687,0.221478 0.26243,0.3745 -0.008,0.396971 -0.24728,0.02055 0.20662,0.183055 0.53287,0.195218 0.3227,0.0191 0.68345,0.113199 0.80169,0.209085 0.26668,0.155638 0.1221,-0.04603 0.40822,0.05475 0.16617,-0.102708 0.37679,0.199688 0.45728,0.656538 0.0741,0.42056 -0.11056,0.550067 -0.79027,0.554281 -0.83475,0.0051 -1.22345,0.547173 -0.98417,1.372328 0.0853,0.294114 0.12085,0.568969 0.079,0.610792 -0.0418,0.04184 0.005,0.0797 0.10613,0.08419 0.10018,0.0044 0.0375,0.07322 -0.13931,0.15274 l -0.32147,0.14459 0.34657,0.04797 c 0.37242,0.05161 0.37404,0.271203 0.004,0.701298 -0.16854,0.196523 -0.15666,0.226099 0.11598,0.288654 0.4574,0.104962 3.72886,7.29e-4 4.09709,-0.13025 0.36823,-0.131212 7.32608,-0.165446 7.4058,-0.03645 0.0289,0.04673 0.90596,0.09404 1.94906,0.105158 0.38691,-0.140612 4.43787,0.477223 2.54986,-0.238233 z"
     id="path302-6" /></svg>
